<mxfile host="app.diagrams.net" agent="Mozilla/5.0 (X11; Linux x86_64; rv:129.0) Gecko/20100101 Firefox/129.0" version="24.7.7">
  <diagram id="f106602c-feb2-e66a-4537-3a34d633f6aa" name="Page-1">
    <mxGraphModel dx="1728" dy="128" grid="0" gridSize="10" guides="1" tooltips="1" connect="0" arrows="0" fold="1" page="0" pageScale="1" pageWidth="1169" pageHeight="827" background="none" math="0" shadow="0">
      <root>
        <mxCell id="0" />
        <mxCell id="1" parent="0" />
        <mxCell id="w5ZOCgXdWMlHR6tc9iUt-585" value="" style="aspect=fixed;sketch=0;html=1;dashed=0;whitespace=wrap;verticalLabelPosition=bottom;verticalAlign=top;fillColor=#2875E2;strokeColor=#ffffff;points=[[0.005,0.63,0],[0.1,0.2,0],[0.9,0.2,0],[0.5,0,0],[0.995,0.63,0],[0.72,0.99,0],[0.5,1,0],[0.28,0.99,0]];shape=mxgraph.kubernetes.icon2;prIcon=api" vertex="1" parent="1">
          <mxGeometry x="306" y="1091.0032335329342" width="0.3373073610145394" height="0.32378916344088254" as="geometry" />
        </mxCell>
        <mxCell id="w5ZOCgXdWMlHR6tc9iUt-586" value="" style="rounded=1;whiteSpace=wrap;html=1;strokeColor=#7B838A;dashed=1;arcSize=7;" vertex="1" parent="1">
          <mxGeometry x="115.5" y="1072.62" width="384.5" height="244.38" as="geometry" />
        </mxCell>
        <mxCell id="w5ZOCgXdWMlHR6tc9iUt-587" value="" style="group;fillColor=default;" vertex="1" connectable="0" parent="1">
          <mxGeometry x="257.75" y="1057" width="100" height="30" as="geometry" />
        </mxCell>
        <mxCell id="w5ZOCgXdWMlHR6tc9iUt-588" value="Kubernetes" style="text;html=1;align=center;verticalAlign=middle;whiteSpace=wrap;rounded=0;fontFamily=Roboto;fontSource=https%3A%2F%2Ffonts.googleapis.com%2Fcss%3Ffamily%3DRoboto;horizontal=1;fontStyle=1;labelPosition=center;verticalLabelPosition=middle;fontColor=#7B838A;" vertex="1" parent="w5ZOCgXdWMlHR6tc9iUt-587">
          <mxGeometry x="34.54545454545455" width="65.45454545454545" height="30" as="geometry" />
        </mxCell>
        <mxCell id="w5ZOCgXdWMlHR6tc9iUt-589" value="" style="image;sketch=0;aspect=fixed;html=1;points=[];align=center;fontSize=12;image=img/lib/mscae/Kubernetes.svg;" vertex="1" parent="w5ZOCgXdWMlHR6tc9iUt-587">
          <mxGeometry y="1.1999999999999886" width="27.272727272727273" height="26.18181818181818" as="geometry" />
        </mxCell>
        <mxCell id="w5ZOCgXdWMlHR6tc9iUt-590" value="" style="rounded=1;whiteSpace=wrap;html=1;dashed=1;strokeColor=#1971c2;arcSize=7;" vertex="1" parent="1">
          <mxGeometry x="152" y="1119.62" width="308" height="154.38" as="geometry" />
        </mxCell>
        <mxCell id="w5ZOCgXdWMlHR6tc9iUt-594" value="" style="group;arcSize=7;" vertex="1" connectable="0" parent="1">
          <mxGeometry x="207" y="1159.12" width="70" height="80.5" as="geometry" />
        </mxCell>
        <mxCell id="w5ZOCgXdWMlHR6tc9iUt-595" value="" style="rounded=1;whiteSpace=wrap;html=1;strokeColor=#1971c2;" vertex="1" parent="w5ZOCgXdWMlHR6tc9iUt-594">
          <mxGeometry width="70" height="80.5" as="geometry" />
        </mxCell>
        <mxCell id="w5ZOCgXdWMlHR6tc9iUt-596" value="" style="sketch=0;html=1;aspect=fixed;strokeColor=none;shadow=0;fillColor=#1971c2;verticalAlign=middle;labelPosition=right;verticalLabelPosition=middle;shape=mxgraph.gcp2.website;align=left;spacingLeft=20;" vertex="1" parent="w5ZOCgXdWMlHR6tc9iUt-594">
          <mxGeometry x="22.557617554858894" y="15.882499999999936" width="27.443202614379082" height="26.62173202614379" as="geometry" />
        </mxCell>
        <mxCell id="w5ZOCgXdWMlHR6tc9iUt-597" value="&lt;font data-font-src=&quot;https://fonts.googleapis.com/css?family=Roboto&quot; face=&quot;Roboto&quot;&gt;&lt;b&gt;VUI-UI&lt;/b&gt;&lt;/font&gt;" style="text;html=1;align=center;verticalAlign=middle;whiteSpace=wrap;rounded=0;" vertex="1" parent="w5ZOCgXdWMlHR6tc9iUt-594">
          <mxGeometry x="5" y="44.5" width="60" height="30" as="geometry" />
        </mxCell>
        <mxCell id="w5ZOCgXdWMlHR6tc9iUt-598" value="" style="group" vertex="1" connectable="0" parent="1">
          <mxGeometry x="332" y="1159.12" width="70" height="80.5" as="geometry" />
        </mxCell>
        <mxCell id="w5ZOCgXdWMlHR6tc9iUt-599" value="" style="rounded=1;whiteSpace=wrap;html=1;strokeColor=#1971c2;arcSize=7;" vertex="1" parent="w5ZOCgXdWMlHR6tc9iUt-598">
          <mxGeometry width="70" height="80.5" as="geometry" />
        </mxCell>
        <mxCell id="w5ZOCgXdWMlHR6tc9iUt-600" value="&lt;div&gt;&lt;font face=&quot;Roboto&quot; data-font-src=&quot;https://fonts.googleapis.com/css?family=Roboto&quot;&gt;&lt;b&gt;VUI-CORE&lt;/b&gt;&lt;/font&gt;&lt;/div&gt;" style="text;html=1;align=center;verticalAlign=middle;whiteSpace=wrap;rounded=0;" vertex="1" parent="w5ZOCgXdWMlHR6tc9iUt-598">
          <mxGeometry x="5" y="45.5" width="60" height="30" as="geometry" />
        </mxCell>
        <mxCell id="w5ZOCgXdWMlHR6tc9iUt-601" value="" style="aspect=fixed;sketch=0;html=1;dashed=0;whitespace=wrap;verticalLabelPosition=middle;verticalAlign=middle;fillColor=#1971c2;strokeColor=#ffffff;points=[[0.005,0.63,0],[0.1,0.2,0],[0.9,0.2,0],[0.5,0,0],[0.995,0.63,0],[0.72,0.99,0],[0.5,1,0],[0.28,0.99,0]];shape=mxgraph.kubernetes.icon2;prIcon=api;spacingLeft=26;labelPosition=right;align=left;" vertex="1" parent="w5ZOCgXdWMlHR6tc9iUt-598">
          <mxGeometry x="17.5" y="11.740000000000009" width="35" height="32.76" as="geometry" />
        </mxCell>
        <mxCell id="w5ZOCgXdWMlHR6tc9iUt-606" value="" style="group;arcSize=7;" vertex="1" connectable="0" parent="1">
          <mxGeometry x="20" y="1175.12" width="50" height="49" as="geometry" />
        </mxCell>
        <mxCell id="w5ZOCgXdWMlHR6tc9iUt-607" value="" style="rounded=1;whiteSpace=wrap;html=1;strokeColor=#1971c2;" vertex="1" parent="w5ZOCgXdWMlHR6tc9iUt-606">
          <mxGeometry width="50" height="49" as="geometry" />
        </mxCell>
        <mxCell id="w5ZOCgXdWMlHR6tc9iUt-608" value="" style="outlineConnect=0;dashed=0;verticalLabelPosition=bottom;verticalAlign=top;align=right;html=1;fontSize=12;fontStyle=0;aspect=fixed;pointerEvents=1;shape=mxgraph.aws4.users;fillColor=#1971c2;strokeColor=#36393d;" vertex="1" parent="w5ZOCgXdWMlHR6tc9iUt-606">
          <mxGeometry x="8" y="7.5" width="34" height="32" as="geometry" />
        </mxCell>
        <mxCell id="w5ZOCgXdWMlHR6tc9iUt-613" value="" style="endArrow=classic;html=1;rounded=0;entryX=-0.018;entryY=0.5;entryDx=0;entryDy=0;entryPerimeter=0;flowAnimation=1;strokeColor=#1971c2;exitX=0.986;exitY=0.52;exitDx=0;exitDy=0;exitPerimeter=0;" edge="1" parent="1" source="w5ZOCgXdWMlHR6tc9iUt-607" target="w5ZOCgXdWMlHR6tc9iUt-595">
          <mxGeometry width="50" height="50" relative="1" as="geometry">
            <mxPoint x="239" y="1207" as="sourcePoint" />
            <mxPoint x="289" y="1157" as="targetPoint" />
          </mxGeometry>
        </mxCell>
        <mxCell id="w5ZOCgXdWMlHR6tc9iUt-642" value="" style="endArrow=classic;html=1;rounded=0;exitX=0.986;exitY=0.483;exitDx=0;exitDy=0;exitPerimeter=0;flowAnimation=1;strokeColor=#1971c2;" edge="1" parent="1" source="w5ZOCgXdWMlHR6tc9iUt-595">
          <mxGeometry width="50" height="50" relative="1" as="geometry">
            <mxPoint x="500" y="1207" as="sourcePoint" />
            <mxPoint x="330" y="1198" as="targetPoint" />
          </mxGeometry>
        </mxCell>
        <mxCell id="w5ZOCgXdWMlHR6tc9iUt-647" value="" style="aspect=fixed;sketch=0;html=1;dashed=0;whitespace=wrap;verticalLabelPosition=bottom;verticalAlign=top;fillColor=#2875E2;strokeColor=#ffffff;points=[[0.005,0.63,0],[0.1,0.2,0],[0.9,0.2,0],[0.5,0,0],[0.995,0.63,0],[0.72,0.99,0],[0.5,1,0],[0.28,0.99,0]];shape=mxgraph.kubernetes.icon2;prIcon=api" vertex="1" parent="1">
          <mxGeometry x="851.17" y="861.8132335329343" width="0.3373073610145394" height="0.32378916344088254" as="geometry" />
        </mxCell>
        <mxCell id="w5ZOCgXdWMlHR6tc9iUt-648" value="" style="rounded=1;whiteSpace=wrap;html=1;strokeColor=#7B838A;dashed=1;arcSize=7;" vertex="1" parent="1">
          <mxGeometry x="660.67" y="843.43" width="380" height="361.45" as="geometry" />
        </mxCell>
        <mxCell id="w5ZOCgXdWMlHR6tc9iUt-649" value="" style="group;fillColor=default;" vertex="1" connectable="0" parent="1">
          <mxGeometry x="800" y="828.0000000000001" width="100" height="30" as="geometry" />
        </mxCell>
        <mxCell id="w5ZOCgXdWMlHR6tc9iUt-650" value="Kubernetes" style="text;html=1;align=center;verticalAlign=middle;whiteSpace=wrap;rounded=0;fontFamily=Roboto;fontSource=https%3A%2F%2Ffonts.googleapis.com%2Fcss%3Ffamily%3DRoboto;horizontal=1;fontStyle=1;labelPosition=center;verticalLabelPosition=middle;fontColor=#7B838A;" vertex="1" parent="w5ZOCgXdWMlHR6tc9iUt-649">
          <mxGeometry x="34.54545454545455" width="65.45454545454545" height="30" as="geometry" />
        </mxCell>
        <mxCell id="w5ZOCgXdWMlHR6tc9iUt-651" value="" style="image;sketch=0;aspect=fixed;html=1;points=[];align=center;fontSize=12;image=img/lib/mscae/Kubernetes.svg;" vertex="1" parent="w5ZOCgXdWMlHR6tc9iUt-649">
          <mxGeometry y="1.1999999999999886" width="27.272727272727273" height="26.18181818181818" as="geometry" />
        </mxCell>
        <mxCell id="w5ZOCgXdWMlHR6tc9iUt-652" value="" style="rounded=1;whiteSpace=wrap;html=1;dashed=1;strokeColor=#1971c2;arcSize=7;" vertex="1" parent="1">
          <mxGeometry x="697.17" y="890.43" width="203.5" height="274.45" as="geometry" />
        </mxCell>
        <mxCell id="w5ZOCgXdWMlHR6tc9iUt-656" value="" style="group" vertex="1" connectable="0" parent="1">
          <mxGeometry x="761.17" y="921.5" width="70" height="80.5" as="geometry" />
        </mxCell>
        <mxCell id="w5ZOCgXdWMlHR6tc9iUt-657" value="" style="rounded=1;whiteSpace=wrap;html=1;strokeColor=#1971c2;arcSize=7;" vertex="1" parent="w5ZOCgXdWMlHR6tc9iUt-656">
          <mxGeometry width="70" height="80.5" as="geometry" />
        </mxCell>
        <mxCell id="w5ZOCgXdWMlHR6tc9iUt-658" value="&lt;div&gt;&lt;font face=&quot;Roboto&quot; data-font-src=&quot;https://fonts.googleapis.com/css?family=Roboto&quot;&gt;&lt;b&gt;VUI-API&lt;/b&gt;&lt;/font&gt;&lt;/div&gt;" style="text;html=1;align=center;verticalAlign=middle;whiteSpace=wrap;rounded=0;" vertex="1" parent="w5ZOCgXdWMlHR6tc9iUt-656">
          <mxGeometry x="5" y="45.5" width="60" height="30" as="geometry" />
        </mxCell>
        <mxCell id="w5ZOCgXdWMlHR6tc9iUt-659" value="" style="aspect=fixed;sketch=0;html=1;dashed=0;whitespace=wrap;verticalLabelPosition=middle;verticalAlign=middle;fillColor=#1971c2;strokeColor=#ffffff;points=[[0.005,0.63,0],[0.1,0.2,0],[0.9,0.2,0],[0.5,0,0],[0.995,0.63,0],[0.72,0.99,0],[0.5,1,0],[0.28,0.99,0]];shape=mxgraph.kubernetes.icon2;prIcon=api;spacingLeft=26;labelPosition=right;align=left;" vertex="1" parent="w5ZOCgXdWMlHR6tc9iUt-656">
          <mxGeometry x="17.5" y="11.740000000000009" width="35" height="32.76" as="geometry" />
        </mxCell>
        <mxCell id="w5ZOCgXdWMlHR6tc9iUt-660" value="" style="group;imageHeight=24;arcSize=7;" vertex="1" connectable="0" parent="1">
          <mxGeometry x="736.17" y="1057" width="120" height="80.5" as="geometry" />
        </mxCell>
        <mxCell id="w5ZOCgXdWMlHR6tc9iUt-661" value="" style="rounded=1;whiteSpace=wrap;html=1;strokeColor=#1971c2;" vertex="1" parent="w5ZOCgXdWMlHR6tc9iUt-660">
          <mxGeometry width="120" height="80.5" as="geometry" />
        </mxCell>
        <mxCell id="w5ZOCgXdWMlHR6tc9iUt-662" value="&lt;div&gt;&lt;font data-font-src=&quot;https://fonts.googleapis.com/css?family=Roboto&quot; face=&quot;Roboto&quot;&gt;&lt;b&gt;VUI-WATCHDOG&lt;/b&gt;&lt;/font&gt;&lt;/div&gt;" style="text;html=1;align=center;verticalAlign=middle;whiteSpace=wrap;rounded=0;" vertex="1" parent="w5ZOCgXdWMlHR6tc9iUt-660">
          <mxGeometry x="8.57142857142857" y="42.5" width="102.85714285714288" height="30" as="geometry" />
        </mxCell>
        <mxCell id="w5ZOCgXdWMlHR6tc9iUt-663" value="" style="editableCssRules=.*;html=1;fontColor=#999999;shape=image;verticalLabelPosition=middle;verticalAlign=middle;labelPosition=right;align=left;spacingLeft=20;part=1;points=[];imageAspect=0;image=data:image/svg+xml,PHN2ZyB4bWxucz0iaHR0cDovL3d3dy53My5vcmcvMjAwMC9zdmciIHhtbG5zOnY9Imh0dHBzOi8vdmVjdGEuaW8vbmFubyIgd2lkdGg9IjE4LjMxOTk5OTY5NDgyNDIyIiBoZWlnaHQ9IjIwLjAwMDAwMTkwNzM0ODYzMyIgdmlld0JveD0iMCAwIDE4LjMxOTk5OTY5NDgyNDIyIDIwLjAwMDAwMTkwNzM0ODYzMyI+JiN4YTsJPHN0eWxlIHR5cGU9InRleHQvY3NzIj4uc3QwIHsgZmlsbDogcmdiKDEwMiwgMTU3LCAyNDYpOyB9IC5zdDEgeyBmaWxsOiByZ2IoNTAsIDEwOCwgMjI5KTsgfSAuc3QyIHsgZmlsbDogcmdiKDE3NCwgMjAzLCAyNTApOyB9IDwvc3R5bGU+JiN4YTsJPGRlZnM+JiN4YTsJCTxmaWx0ZXIgaWQ9IkEiIHg9IjQuNjQiIHk9IjQuMTkiIHdpZHRoPSIxNC43MyIgaGVpZ2h0PSIxMi43NiIgZmlsdGVyVW5pdHM9InVzZXJTcGFjZU9uVXNlIiBjb2xvci1pbnRlcnBvbGF0aW9uLWZpbHRlcnM9InNSR0IiPiYjeGE7CQkJPGZlRmxvb2QgZmxvb2QtY29sb3I9IiNmZmYiLz4mI3hhOwkJCTxmZUJsZW5kIGluPSJTb3VyY2VHcmFwaGljIi8+JiN4YTsJCTwvZmlsdGVyPiYjeGE7CQk8bWFzayBpZD0iQiIgeD0iNC42NCIgeT0iNC4xOSIgd2lkdGg9IjE0LjczIiBoZWlnaHQ9IjEyLjc2IiBtYXNrVW5pdHM9InVzZXJTcGFjZU9uVXNlIj4mI3hhOwkJCTxjaXJjbGUgY3g9IjEyIiBjeT0iMTIuMjMiIHI9IjMuNTgiIGZpbHRlcj0idXJsKCNBKSIvPiYjeGE7CQk8L21hc2s+JiN4YTsJPC9kZWZzPiYjeGE7CTxnIGNsYXNzPSJzdDAiPiYjeGE7CQk8Y2lyY2xlIGN4PSIxNi4xMyIgY3k9IjYuMjEiIHI9IjEuNzIiLz4mI3hhOwkJPGNpcmNsZSBjeD0iMi4xOSIgY3k9IjYuMjEiIHI9IjEuNzIiLz4mI3hhOwkJPGNpcmNsZSBjeD0iOS4xNiIgY3k9IjE4LjI4IiByPSIxLjcyIi8+JiN4YTsJPC9nPiYjeGE7CTxnIG1hc2s9InVybCgjQikiIHRyYW5zZm9ybT0idHJhbnNsYXRlKC0yLjg0IC0yKSI+JiN4YTsJCTxwYXRoIHRyYW5zZm9ybT0ibWF0cml4KC41IC0uODcgLjg3IC41IC00LjU5IDIwLjUzKSIgZD0iTTE0LjY5IDEwLjIyaDEuNTl2OC4wNGgtMS41OXoiIGNsYXNzPSJzdDEiLz4mI3hhOwkJPHBhdGggdHJhbnNmb3JtPSJyb3RhdGUoMzMwIDguNTIzIDE0LjI0NCkiIGQ9Ik00LjQ5IDEzLjQ1aDguMDR2MS41OUg0LjQ5eiIgY2xhc3M9InN0MSIvPiYjeGE7CQk8cGF0aCBkPSJNMTEuMiA0LjE5aDEuNTl2OC4wNEgxMS4yeiIgY2xhc3M9InN0MSIvPiYjeGE7CTwvZz4mI3hhOwk8ZyBjbGFzcz0ic3QyIj4mI3hhOwkJPGNpcmNsZSBjeD0iOS4xNiIgY3k9IjEwLjIzIiByPSIyLjc4Ii8+JiN4YTsJCTxjaXJjbGUgY3g9IjIuMTkiIGN5PSIxNC4yNSIgcj0iMi4xOSIvPiYjeGE7CQk8Y2lyY2xlIGN4PSIxNi4xMyIgY3k9IjE0LjI1IiByPSIyLjE5Ii8+JiN4YTsJCTxjaXJjbGUgY3g9IjkuMTYiIGN5PSIyLjE5IiByPSIyLjE5Ii8+JiN4YTsJPC9nPiYjeGE7PC9zdmc+;" vertex="1" parent="w5ZOCgXdWMlHR6tc9iUt-660">
          <mxGeometry x="46.5" y="12.5" width="27" height="30" as="geometry" />
        </mxCell>
        <mxCell id="w5ZOCgXdWMlHR6tc9iUt-664" value="" style="group;arcSize=7;" vertex="1" connectable="0" parent="1">
          <mxGeometry x="935.17" y="983.9099999999997" width="70" height="80.5" as="geometry" />
        </mxCell>
        <mxCell id="w5ZOCgXdWMlHR6tc9iUt-665" value="" style="rounded=1;whiteSpace=wrap;html=1;strokeColor=#1971c2;" vertex="1" parent="w5ZOCgXdWMlHR6tc9iUt-664">
          <mxGeometry width="70" height="80.5" as="geometry" />
        </mxCell>
        <mxCell id="w5ZOCgXdWMlHR6tc9iUt-666" value="&lt;font data-font-src=&quot;https://fonts.googleapis.com/css?family=Roboto&quot; face=&quot;Roboto&quot;&gt;&lt;b&gt;VELERO&lt;/b&gt;&lt;/font&gt;" style="text;html=1;align=center;verticalAlign=middle;whiteSpace=wrap;rounded=0;" vertex="1" parent="w5ZOCgXdWMlHR6tc9iUt-664">
          <mxGeometry x="5" y="45.5" width="60" height="30" as="geometry" />
        </mxCell>
        <mxCell id="w5ZOCgXdWMlHR6tc9iUt-667" value="" style="shape=image;verticalLabelPosition=bottom;labelBackgroundColor=default;verticalAlign=top;aspect=fixed;imageAspect=0;image=data:image/png,iVBORw0KGgoAAAANSUhEUgAAACoAAAAwCAIAAADo7H/xAAAAA3NCSVQICAjb4U/gAAAFUElEQVRYR+1Xe2xTZRRfu+52rz7X7uXmGGzMPdgYSDZAQEY0m+hQNIaIMUPNFqIohsxoVHA+iZkvjMQwWJSIGqfBCRniFJwQYEwGo4ONQdn70ff7sdvb1rPd5fZre3fbbkv2z26a5n7f75zzO9853znfd1lutzts/h72/FFPMC/Qz2P85zn4nNks3ekOU1qdYxYiPjr8ntiZmApZR2d3NcrNf/RZFVbniJkAD8iHh7GzRBGLBRH5Uu62rNggV8UKvu5vafFGuQV+QMxsPU+CbcviBeNEsPTfXDfU/qdnZvVBwYmqZYKy9GgGraDod/6tau63MlhhgL7aKGXwIDD92p+GAkabgR4gBg8CFF7FacUsuYF+11nVqV764DHRg875YTvzyoJE97fpBoyEv/C09Hf0jppLWn+Fmc0Mm4mXzqj8daete1ZYmNo2VWDLJNjx8iRUOaO+nxreeT4tGKip13Ksy7Q9m4cK02+9bi1uJ9zL47mUKMr3aqFwV6EgVAjk1yRHHi1NCEz/9TXD5+2hVTlqlOG9doPk8SUxlAB97iFQDCZmA5lxF6pOk/seHf7RA3GHO41otaAJPthh+OyKJza/lSdBgyONMkAn5JbXWtQyNR4g+CfvWnb/oz5WltClxetkpgIpdnCTdNBEbGwYJjVJV178U/lEZuzm9OghM/Hgz15QfaeRxWLtyOWhUOszKXf1jr0XtKe2JlMe0Gy9ozdN702WXCqPU5wUyQ1nfd9l8gl4rgSDXnZFYa/+V+MDwaH3TrEIJnecVvpA0RzWUhH28bq4TGEECdHQH7iqP3DV4KM5h0M0jzS5fzKTB+v2WdbLywXPZvOEXPYtnWNL4yjqzfqUqJrVYlCB47+yWdWt82R3VSL3k3USEqo+p2kd9euhcN77PCfl5h+6TWbc+eEl7ZIjffAbNRMg83qLuqRhqGXQCu9QGihUJzPA8LDMgEJtY3YYopDSSpT+OozS0QS/30hs+mUY1rSvWJzGnwhPj87xyPERdMVUABkgkEebFQyhWZUtilkqmko8zNDQw+zW30eve1fIXOW++n5hVb6nY9K3naezvDozyf3GKlHDo4nlSM+ifIKdAeW0s8BjF4WgMexeIYSZmAh2Sar35cc385NjjY0YMDrI7MI/ZBom5Xr8x24TvCgsxFMnRkm0vnMi3yor8WW7Xmd34k4XtWPgBaDbOvz9i9pzQ1at3bn/8sQM+tAHHzz9a8C2Njly3OkmXG5JVPib5zUNPWZyTYceii9JjaLWt++iFo4ycvh2kagil09B394wftCqI4fvrhZni7GVCZ5jDOanpb+hwX0KjDI6s5cNKVFHHo730aXPPQjlxmGV+Z51wAx0wC0ZMVDE/vQrErgVOfycuKnOjwqAHYBgZm+x2F9x2tWTopXNyjODts3pMTVrxHyMDbmI4rA6VPgrZ1VwgQEZEhJgbJPDBQK39Q44C0gIvPl0gyRDEAEQbIs0vqfeKD8C0GvtLrPDdS+PA18Xe1rUoAbJq10vkUaHw90NXEnhcS6P2bc3KQACvreKRAVSLrQpOHJAq00xAe1ZKaQtClAJQA8ShnEXnALf3fQ6dcDifWJMY3PKDY46mRGNalU+P0eMEe4w+Co6JDNCzJ/LoSljUiUwPSnX1GuF0gIylIn5HS4BL+TxH1vsudv4ywdLD5pw4f+iXU+Vn78tambuv/Eo03K9o0M9fk2JXxix9Xlf3YsSIwsTuHlxWOkipu861O8QVu+/XDhhByf3PzyF8VyMDbfz0J5Z0YdGRSc9bduhE577uQX6uY9p0BYXgh90qOZecJ6D/z8Hltw4oe9yRgAAAABJRU5ErkJggg==;" vertex="1" parent="w5ZOCgXdWMlHR6tc9iUt-664">
          <mxGeometry x="15.93" y="11" width="34.13" height="39" as="geometry" />
        </mxCell>
        <mxCell id="w5ZOCgXdWMlHR6tc9iUt-692" value="" style="endArrow=classic;startArrow=classic;html=1;rounded=0;entryX=0.496;entryY=0;entryDx=0;entryDy=0;entryPerimeter=0;strokeColor=#1971c2;flowAnimation=1;exitX=0.5;exitY=0.998;exitDx=0;exitDy=0;exitPerimeter=0;flowAnimationDirection=alternate;" edge="1" parent="1" source="w5ZOCgXdWMlHR6tc9iUt-657" target="w5ZOCgXdWMlHR6tc9iUt-661">
          <mxGeometry width="50" height="50" relative="1" as="geometry">
            <mxPoint x="800.67" y="1003.9999999999999" as="sourcePoint" />
            <mxPoint x="561.67" y="977.5999999999999" as="targetPoint" />
          </mxGeometry>
        </mxCell>
        <mxCell id="w5ZOCgXdWMlHR6tc9iUt-695" value="" style="aspect=fixed;sketch=0;html=1;dashed=0;whitespace=wrap;verticalLabelPosition=bottom;verticalAlign=top;fillColor=#2875E2;strokeColor=#ffffff;points=[[0.005,0.63,0],[0.1,0.2,0],[0.9,0.2,0],[0.5,0,0],[0.995,0.63,0],[0.72,0.99,0],[0.5,1,0],[0.28,0.99,0]];shape=mxgraph.kubernetes.icon2;prIcon=api" vertex="1" parent="1">
          <mxGeometry x="850.5" y="1310.8132335329342" width="0.3373073610145394" height="0.32378916344088254" as="geometry" />
        </mxCell>
        <mxCell id="w5ZOCgXdWMlHR6tc9iUt-696" value="" style="rounded=1;whiteSpace=wrap;html=1;strokeColor=#7B838A;dashed=1;arcSize=7;" vertex="1" parent="1">
          <mxGeometry x="660" y="1292.4299999999998" width="380" height="361.45" as="geometry" />
        </mxCell>
        <mxCell id="w5ZOCgXdWMlHR6tc9iUt-697" value="" style="group;fillColor=default;" vertex="1" connectable="0" parent="1">
          <mxGeometry x="801.34" y="1277.14" width="100" height="30" as="geometry" />
        </mxCell>
        <mxCell id="w5ZOCgXdWMlHR6tc9iUt-698" value="Kubernetes" style="text;html=1;align=center;verticalAlign=middle;whiteSpace=wrap;rounded=0;fontFamily=Roboto;fontSource=https%3A%2F%2Ffonts.googleapis.com%2Fcss%3Ffamily%3DRoboto;horizontal=1;fontStyle=1;labelPosition=center;verticalLabelPosition=middle;fontColor=#7B838A;" vertex="1" parent="w5ZOCgXdWMlHR6tc9iUt-697">
          <mxGeometry x="34.54545454545455" width="65.45454545454545" height="30" as="geometry" />
        </mxCell>
        <mxCell id="w5ZOCgXdWMlHR6tc9iUt-699" value="" style="image;sketch=0;aspect=fixed;html=1;points=[];align=center;fontSize=12;image=img/lib/mscae/Kubernetes.svg;" vertex="1" parent="w5ZOCgXdWMlHR6tc9iUt-697">
          <mxGeometry y="1.1999999999999886" width="27.272727272727273" height="26.18181818181818" as="geometry" />
        </mxCell>
        <mxCell id="w5ZOCgXdWMlHR6tc9iUt-700" value="" style="rounded=1;whiteSpace=wrap;html=1;dashed=1;strokeColor=#1971c2;arcSize=7;" vertex="1" parent="1">
          <mxGeometry x="696.5" y="1339.4299999999998" width="203.5" height="274.45" as="geometry" />
        </mxCell>
        <mxCell id="w5ZOCgXdWMlHR6tc9iUt-704" value="" style="group" vertex="1" connectable="0" parent="1">
          <mxGeometry x="760.5" y="1370.5" width="70" height="80.5" as="geometry" />
        </mxCell>
        <mxCell id="w5ZOCgXdWMlHR6tc9iUt-705" value="" style="rounded=1;whiteSpace=wrap;html=1;strokeColor=#1971c2;arcSize=7;" vertex="1" parent="w5ZOCgXdWMlHR6tc9iUt-704">
          <mxGeometry width="70" height="80.5" as="geometry" />
        </mxCell>
        <mxCell id="w5ZOCgXdWMlHR6tc9iUt-706" value="&lt;div&gt;&lt;font face=&quot;Roboto&quot; data-font-src=&quot;https://fonts.googleapis.com/css?family=Roboto&quot;&gt;&lt;b&gt;VUI-API&lt;/b&gt;&lt;/font&gt;&lt;/div&gt;" style="text;html=1;align=center;verticalAlign=middle;whiteSpace=wrap;rounded=0;" vertex="1" parent="w5ZOCgXdWMlHR6tc9iUt-704">
          <mxGeometry x="5" y="45.5" width="60" height="30" as="geometry" />
        </mxCell>
        <mxCell id="w5ZOCgXdWMlHR6tc9iUt-707" value="" style="aspect=fixed;sketch=0;html=1;dashed=0;whitespace=wrap;verticalLabelPosition=middle;verticalAlign=middle;fillColor=#1971c2;strokeColor=#ffffff;points=[[0.005,0.63,0],[0.1,0.2,0],[0.9,0.2,0],[0.5,0,0],[0.995,0.63,0],[0.72,0.99,0],[0.5,1,0],[0.28,0.99,0]];shape=mxgraph.kubernetes.icon2;prIcon=api;spacingLeft=26;labelPosition=right;align=left;" vertex="1" parent="w5ZOCgXdWMlHR6tc9iUt-704">
          <mxGeometry x="17.5" y="11.740000000000009" width="35" height="32.76" as="geometry" />
        </mxCell>
        <mxCell id="w5ZOCgXdWMlHR6tc9iUt-708" value="" style="group;imageHeight=24;arcSize=7;" vertex="1" connectable="0" parent="1">
          <mxGeometry x="735.5" y="1506" width="120" height="80.5" as="geometry" />
        </mxCell>
        <mxCell id="w5ZOCgXdWMlHR6tc9iUt-709" value="" style="rounded=1;whiteSpace=wrap;html=1;strokeColor=#1971c2;" vertex="1" parent="w5ZOCgXdWMlHR6tc9iUt-708">
          <mxGeometry width="120" height="80.5" as="geometry" />
        </mxCell>
        <mxCell id="w5ZOCgXdWMlHR6tc9iUt-710" value="&lt;div&gt;&lt;font data-font-src=&quot;https://fonts.googleapis.com/css?family=Roboto&quot; face=&quot;Roboto&quot;&gt;&lt;b&gt;VUI-WATCHDOG&lt;/b&gt;&lt;/font&gt;&lt;/div&gt;" style="text;html=1;align=center;verticalAlign=middle;whiteSpace=wrap;rounded=0;" vertex="1" parent="w5ZOCgXdWMlHR6tc9iUt-708">
          <mxGeometry x="8.57142857142857" y="42.5" width="102.85714285714288" height="30" as="geometry" />
        </mxCell>
        <mxCell id="w5ZOCgXdWMlHR6tc9iUt-711" value="" style="editableCssRules=.*;html=1;fontColor=#999999;shape=image;verticalLabelPosition=middle;verticalAlign=middle;labelPosition=right;align=left;spacingLeft=20;part=1;points=[];imageAspect=0;image=data:image/svg+xml,PHN2ZyB4bWxucz0iaHR0cDovL3d3dy53My5vcmcvMjAwMC9zdmciIHhtbG5zOnY9Imh0dHBzOi8vdmVjdGEuaW8vbmFubyIgd2lkdGg9IjE4LjMxOTk5OTY5NDgyNDIyIiBoZWlnaHQ9IjIwLjAwMDAwMTkwNzM0ODYzMyIgdmlld0JveD0iMCAwIDE4LjMxOTk5OTY5NDgyNDIyIDIwLjAwMDAwMTkwNzM0ODYzMyI+JiN4YTsJPHN0eWxlIHR5cGU9InRleHQvY3NzIj4uc3QwIHsgZmlsbDogcmdiKDEwMiwgMTU3LCAyNDYpOyB9IC5zdDEgeyBmaWxsOiByZ2IoMjUsIDExMywgMTk0KTsgfSAuc3QyIHsgZmlsbDogcmdiKDE3NCwgMjAzLCAyNTApOyB9IDwvc3R5bGU+JiN4YTsJPGRlZnM+JiN4YTsJCTxmaWx0ZXIgaWQ9IkEiIHg9IjQuNjQiIHk9IjQuMTkiIHdpZHRoPSIxNC43MyIgaGVpZ2h0PSIxMi43NiIgZmlsdGVyVW5pdHM9InVzZXJTcGFjZU9uVXNlIiBjb2xvci1pbnRlcnBvbGF0aW9uLWZpbHRlcnM9InNSR0IiPiYjeGE7CQkJPGZlRmxvb2QgZmxvb2QtY29sb3I9IiNmZmYiLz4mI3hhOwkJCTxmZUJsZW5kIGluPSJTb3VyY2VHcmFwaGljIi8+JiN4YTsJCTwvZmlsdGVyPiYjeGE7CQk8bWFzayBpZD0iQiIgeD0iNC42NCIgeT0iNC4xOSIgd2lkdGg9IjE0LjczIiBoZWlnaHQ9IjEyLjc2IiBtYXNrVW5pdHM9InVzZXJTcGFjZU9uVXNlIj4mI3hhOwkJCTxjaXJjbGUgY3g9IjEyIiBjeT0iMTIuMjMiIHI9IjMuNTgiIGZpbHRlcj0idXJsKCNBKSIvPiYjeGE7CQk8L21hc2s+JiN4YTsJPC9kZWZzPiYjeGE7CTxnIGNsYXNzPSJzdDAiPiYjeGE7CQk8Y2lyY2xlIGN4PSIxNi4xMyIgY3k9IjYuMjEiIHI9IjEuNzIiLz4mI3hhOwkJPGNpcmNsZSBjeD0iMi4xOSIgY3k9IjYuMjEiIHI9IjEuNzIiLz4mI3hhOwkJPGNpcmNsZSBjeD0iOS4xNiIgY3k9IjE4LjI4IiByPSIxLjcyIi8+JiN4YTsJPC9nPiYjeGE7CTxnIG1hc2s9InVybCgjQikiIHRyYW5zZm9ybT0idHJhbnNsYXRlKC0yLjg0IC0yKSI+JiN4YTsJCTxwYXRoIHRyYW5zZm9ybT0ibWF0cml4KC41IC0uODcgLjg3IC41IC00LjU5IDIwLjUzKSIgZD0iTTE0LjY5IDEwLjIyaDEuNTl2OC4wNGgtMS41OXoiIGNsYXNzPSJzdDEiLz4mI3hhOwkJPHBhdGggdHJhbnNmb3JtPSJyb3RhdGUoMzMwIDguNTIzIDE0LjI0NCkiIGQ9Ik00LjQ5IDEzLjQ1aDguMDR2MS41OUg0LjQ5eiIgY2xhc3M9InN0MSIvPiYjeGE7CQk8cGF0aCBkPSJNMTEuMiA0LjE5aDEuNTl2OC4wNEgxMS4yeiIgY2xhc3M9InN0MSIvPiYjeGE7CTwvZz4mI3hhOwk8ZyBjbGFzcz0ic3QyIj4mI3hhOwkJPGNpcmNsZSBjeD0iOS4xNiIgY3k9IjEwLjIzIiByPSIyLjc4Ii8+JiN4YTsJCTxjaXJjbGUgY3g9IjIuMTkiIGN5PSIxNC4yNSIgcj0iMi4xOSIvPiYjeGE7CQk8Y2lyY2xlIGN4PSIxNi4xMyIgY3k9IjE0LjI1IiByPSIyLjE5Ii8+JiN4YTsJCTxjaXJjbGUgY3g9IjkuMTYiIGN5PSIyLjE5IiByPSIyLjE5Ii8+JiN4YTsJPC9nPiYjeGE7PC9zdmc+;" vertex="1" parent="w5ZOCgXdWMlHR6tc9iUt-708">
          <mxGeometry x="46.5" y="12.5" width="27" height="30" as="geometry" />
        </mxCell>
        <mxCell id="w5ZOCgXdWMlHR6tc9iUt-712" value="" style="group;arcSize=7;" vertex="1" connectable="0" parent="1">
          <mxGeometry x="934.5" y="1432.9099999999999" width="70" height="80.5" as="geometry" />
        </mxCell>
        <mxCell id="w5ZOCgXdWMlHR6tc9iUt-713" value="" style="rounded=1;whiteSpace=wrap;html=1;strokeColor=#1971c2;" vertex="1" parent="w5ZOCgXdWMlHR6tc9iUt-712">
          <mxGeometry width="70" height="80.5" as="geometry" />
        </mxCell>
        <mxCell id="w5ZOCgXdWMlHR6tc9iUt-714" value="&lt;font data-font-src=&quot;https://fonts.googleapis.com/css?family=Roboto&quot; face=&quot;Roboto&quot;&gt;&lt;b&gt;VELERO&lt;/b&gt;&lt;/font&gt;" style="text;html=1;align=center;verticalAlign=middle;whiteSpace=wrap;rounded=0;" vertex="1" parent="w5ZOCgXdWMlHR6tc9iUt-712">
          <mxGeometry x="5" y="45.5" width="60" height="30" as="geometry" />
        </mxCell>
        <mxCell id="w5ZOCgXdWMlHR6tc9iUt-715" value="" style="shape=image;verticalLabelPosition=bottom;labelBackgroundColor=default;verticalAlign=top;aspect=fixed;imageAspect=0;image=data:image/png,iVBORw0KGgoAAAANSUhEUgAAACoAAAAwCAIAAADo7H/xAAAAA3NCSVQICAjb4U/gAAAFUElEQVRYR+1Xe2xTZRRfu+52rz7X7uXmGGzMPdgYSDZAQEY0m+hQNIaIMUPNFqIohsxoVHA+iZkvjMQwWJSIGqfBCRniFJwQYEwGo4ONQdn70ff7sdvb1rPd5fZre3fbbkv2z26a5n7f75zzO9853znfd1lutzts/h72/FFPMC/Qz2P85zn4nNks3ekOU1qdYxYiPjr8ntiZmApZR2d3NcrNf/RZFVbniJkAD8iHh7GzRBGLBRH5Uu62rNggV8UKvu5vafFGuQV+QMxsPU+CbcviBeNEsPTfXDfU/qdnZvVBwYmqZYKy9GgGraDod/6tau63MlhhgL7aKGXwIDD92p+GAkabgR4gBg8CFF7FacUsuYF+11nVqV764DHRg875YTvzyoJE97fpBoyEv/C09Hf0jppLWn+Fmc0Mm4mXzqj8daete1ZYmNo2VWDLJNjx8iRUOaO+nxreeT4tGKip13Ksy7Q9m4cK02+9bi1uJ9zL47mUKMr3aqFwV6EgVAjk1yRHHi1NCEz/9TXD5+2hVTlqlOG9doPk8SUxlAB97iFQDCZmA5lxF6pOk/seHf7RA3GHO41otaAJPthh+OyKJza/lSdBgyONMkAn5JbXWtQyNR4g+CfvWnb/oz5WltClxetkpgIpdnCTdNBEbGwYJjVJV178U/lEZuzm9OghM/Hgz15QfaeRxWLtyOWhUOszKXf1jr0XtKe2JlMe0Gy9ozdN702WXCqPU5wUyQ1nfd9l8gl4rgSDXnZFYa/+V+MDwaH3TrEIJnecVvpA0RzWUhH28bq4TGEECdHQH7iqP3DV4KM5h0M0jzS5fzKTB+v2WdbLywXPZvOEXPYtnWNL4yjqzfqUqJrVYlCB47+yWdWt82R3VSL3k3USEqo+p2kd9euhcN77PCfl5h+6TWbc+eEl7ZIjffAbNRMg83qLuqRhqGXQCu9QGihUJzPA8LDMgEJtY3YYopDSSpT+OozS0QS/30hs+mUY1rSvWJzGnwhPj87xyPERdMVUABkgkEebFQyhWZUtilkqmko8zNDQw+zW30eve1fIXOW++n5hVb6nY9K3naezvDozyf3GKlHDo4nlSM+ifIKdAeW0s8BjF4WgMexeIYSZmAh2Sar35cc385NjjY0YMDrI7MI/ZBom5Xr8x24TvCgsxFMnRkm0vnMi3yor8WW7Xmd34k4XtWPgBaDbOvz9i9pzQ1at3bn/8sQM+tAHHzz9a8C2Njly3OkmXG5JVPib5zUNPWZyTYceii9JjaLWt++iFo4ycvh2kagil09B394wftCqI4fvrhZni7GVCZ5jDOanpb+hwX0KjDI6s5cNKVFHHo730aXPPQjlxmGV+Z51wAx0wC0ZMVDE/vQrErgVOfycuKnOjwqAHYBgZm+x2F9x2tWTopXNyjODts3pMTVrxHyMDbmI4rA6VPgrZ1VwgQEZEhJgbJPDBQK39Q44C0gIvPl0gyRDEAEQbIs0vqfeKD8C0GvtLrPDdS+PA18Xe1rUoAbJq10vkUaHw90NXEnhcS6P2bc3KQACvreKRAVSLrQpOHJAq00xAe1ZKaQtClAJQA8ShnEXnALf3fQ6dcDifWJMY3PKDY46mRGNalU+P0eMEe4w+Co6JDNCzJ/LoSljUiUwPSnX1GuF0gIylIn5HS4BL+TxH1vsudv4ywdLD5pw4f+iXU+Vn78tambuv/Eo03K9o0M9fk2JXxix9Xlf3YsSIwsTuHlxWOkipu861O8QVu+/XDhhByf3PzyF8VyMDbfz0J5Z0YdGRSc9bduhE577uQX6uY9p0BYXgh90qOZecJ6D/z8Hltw4oe9yRgAAAABJRU5ErkJggg==;" vertex="1" parent="w5ZOCgXdWMlHR6tc9iUt-712">
          <mxGeometry x="15.93" y="11" width="34.13" height="39" as="geometry" />
        </mxCell>
        <mxCell id="w5ZOCgXdWMlHR6tc9iUt-716" value="" style="endArrow=classic;startArrow=classic;html=1;rounded=0;entryX=0.496;entryY=0;entryDx=0;entryDy=0;entryPerimeter=0;strokeColor=#1971c2;flowAnimation=1;exitX=0.5;exitY=0.998;exitDx=0;exitDy=0;exitPerimeter=0;flowAnimationDirection=alternate;" edge="1" parent="1" source="w5ZOCgXdWMlHR6tc9iUt-705" target="w5ZOCgXdWMlHR6tc9iUt-709">
          <mxGeometry width="50" height="50" relative="1" as="geometry">
            <mxPoint x="800" y="1453" as="sourcePoint" />
            <mxPoint x="561" y="1426.6" as="targetPoint" />
          </mxGeometry>
        </mxCell>
        <mxCell id="w5ZOCgXdWMlHR6tc9iUt-717" value="" style="endArrow=classic;html=1;rounded=0;exitX=1;exitY=0.5;exitDx=0;exitDy=0;exitPerimeter=0;entryX=-0.002;entryY=0.497;entryDx=0;entryDy=0;entryPerimeter=0;edgeStyle=elbowEdgeStyle;flowAnimation=1;strokeColor=#1971c2;" edge="1" parent="1" source="w5ZOCgXdWMlHR6tc9iUt-599" target="w5ZOCgXdWMlHR6tc9iUt-657">
          <mxGeometry width="50" height="50" relative="1" as="geometry">
            <mxPoint x="590" y="1240" as="sourcePoint" />
            <mxPoint x="640" y="1190" as="targetPoint" />
          </mxGeometry>
        </mxCell>
        <mxCell id="w5ZOCgXdWMlHR6tc9iUt-718" value="" style="endArrow=classic;html=1;rounded=0;exitX=1.002;exitY=0.496;exitDx=0;exitDy=0;exitPerimeter=0;entryX=-0.005;entryY=0.498;entryDx=0;entryDy=0;entryPerimeter=0;edgeStyle=orthogonalEdgeStyle;flowAnimation=1;strokeColor=#1971c2;" edge="1" parent="1" source="w5ZOCgXdWMlHR6tc9iUt-599" target="w5ZOCgXdWMlHR6tc9iUt-705">
          <mxGeometry width="50" height="50" relative="1" as="geometry">
            <mxPoint x="412" y="1257" as="sourcePoint" />
            <mxPoint x="770" y="972" as="targetPoint" />
          </mxGeometry>
        </mxCell>
        <mxCell id="w5ZOCgXdWMlHR6tc9iUt-720" value="" style="endArrow=classic;html=1;rounded=0;exitX=0.998;exitY=0.497;exitDx=0;exitDy=0;exitPerimeter=0;entryX=0;entryY=0.498;entryDx=0;entryDy=0;entryPerimeter=0;edgeStyle=elbowEdgeStyle;strokeColor=#1971c2;flowAnimation=1;" edge="1" parent="1" source="w5ZOCgXdWMlHR6tc9iUt-657" target="w5ZOCgXdWMlHR6tc9iUt-665">
          <mxGeometry width="50" height="50" relative="1" as="geometry">
            <mxPoint x="520.67" y="930" as="sourcePoint" />
            <mxPoint x="570.67" y="880" as="targetPoint" />
          </mxGeometry>
        </mxCell>
        <mxCell id="w5ZOCgXdWMlHR6tc9iUt-721" value="" style="endArrow=classic;html=1;rounded=0;exitX=0.998;exitY=0.497;exitDx=0;exitDy=0;exitPerimeter=0;entryX=0;entryY=0.498;entryDx=0;entryDy=0;entryPerimeter=0;edgeStyle=elbowEdgeStyle;strokeColor=#1971c2;flowAnimation=1;" edge="1" parent="1">
          <mxGeometry width="50" height="50" relative="1" as="geometry">
            <mxPoint x="830.5" y="1410" as="sourcePoint" />
            <mxPoint x="935.5" y="1472" as="targetPoint" />
          </mxGeometry>
        </mxCell>
        <mxCell id="w5ZOCgXdWMlHR6tc9iUt-729" value="" style="group;fillColor=default;" vertex="1" connectable="0" parent="1">
          <mxGeometry x="276" y="1104" width="54" height="41" as="geometry" />
        </mxCell>
        <mxCell id="w5ZOCgXdWMlHR6tc9iUt-730" value="VUI" style="text;html=1;align=center;verticalAlign=middle;whiteSpace=wrap;rounded=0;fontFamily=Roboto;fontSource=https%3A%2F%2Ffonts.googleapis.com%2Fcss%3Ffamily%3DRoboto;horizontal=1;fontStyle=1;labelPosition=center;verticalLabelPosition=middle;fontColor=#7B838A;" vertex="1" parent="w5ZOCgXdWMlHR6tc9iUt-729">
          <mxGeometry x="28.07" width="25.93" height="30" as="geometry" />
        </mxCell>
        <mxCell id="w5ZOCgXdWMlHR6tc9iUt-731" value="" style="shape=image;verticalLabelPosition=bottom;labelBackgroundColor=default;verticalAlign=top;aspect=fixed;imageAspect=0;image=data:image/svg+xml,PHN2ZyBjbGFzcz0iaWNvbiBpY29uLXRhYmxlciBpY29ucy10YWJsZXItb3V0bGluZSBpY29uLXRhYmxlci1zYWlsYm9hdCIgc3Ryb2tlLWxpbmVqb2luPSJyb3VuZCIgc3Ryb2tlLWxpbmVjYXA9InJvdW5kIiBzdHJva2Utd2lkdGg9IjEuNSIgc3Ryb2tlPSIjZmZmIiBmaWxsPSJub25lIiB2aWV3Qm94PSIwIDAgMjQgMjQiIGhlaWdodD0iMjAwIiB3aWR0aD0iMjAwIiB4bWxucz0iaHR0cDovL3d3dy53My5vcmcvMjAwMC9zdmciPiYjeGE7ICAgIDxjaXJjbGUgZmlsbD0iIzE5NzFjMiIgc3Ryb2tlPSIjMTk3MWMyIiByPSIxMSIgY3k9IjEyIiBjeD0iMTIiLz4mI3hhOyAgICA8cGF0aCBmaWxsPSJub25lIiBkPSJNMCAwaDI0djI0SDB6IiBzdHJva2U9Im5vbmUiLz4mI3hhOyAgICA8cGF0aCBkPSJNMiAyMGEyLjQgMi40IDAgMCAwIDIgMWEyLjQgMi40IDAgMCAwIDIgLTFhMi40IDIuNCAwIDAgMSAyIC0xYTIuNCAyLjQgMCAwIDEgMiAxYTIuNCAyLjQgMCAwIDAgMiAxYTIuNCAyLjQgMCAwIDAgMiAtMWEyLjQgMi40IDAgMCAxIDIgLTFhMi40IDIuNCAwIDAgMSAyIDFhMi40IDIuNCAwIDAgMCAyIDFhMi40IDIuNCAwIDAgMCAyIC0xIi8+JiN4YTsgICAgPHBhdGggZD0iTTQgMThsLTEgLTNoMThsLTEgMyIvPiYjeGE7ICAgIDxwYXRoIGQ9Ik0xMSAxMmg3bC03IC05djkiLz4mI3hhOyAgICA8cGF0aCBkPSJNOCA3bC0yIDUiLz4mI3hhOzwvc3ZnPg==;" vertex="1" parent="w5ZOCgXdWMlHR6tc9iUt-729">
          <mxGeometry y="3.33" width="24.07" height="24.07" as="geometry" />
        </mxCell>
        <mxCell id="w5ZOCgXdWMlHR6tc9iUt-732" value="" style="group;fillColor=default;" vertex="1" connectable="0" parent="1">
          <mxGeometry x="770" y="1323" width="54" height="41" as="geometry" />
        </mxCell>
        <mxCell id="w5ZOCgXdWMlHR6tc9iUt-733" value="VUI" style="text;html=1;align=center;verticalAlign=middle;whiteSpace=wrap;rounded=0;fontFamily=Roboto;fontSource=https%3A%2F%2Ffonts.googleapis.com%2Fcss%3Ffamily%3DRoboto;horizontal=1;fontStyle=1;labelPosition=center;verticalLabelPosition=middle;fontColor=#7B838A;" vertex="1" parent="w5ZOCgXdWMlHR6tc9iUt-732">
          <mxGeometry x="28.07" width="25.93" height="30" as="geometry" />
        </mxCell>
        <mxCell id="w5ZOCgXdWMlHR6tc9iUt-734" value="" style="shape=image;verticalLabelPosition=bottom;labelBackgroundColor=default;verticalAlign=top;aspect=fixed;imageAspect=0;image=data:image/svg+xml,PHN2ZyBjbGFzcz0iaWNvbiBpY29uLXRhYmxlciBpY29ucy10YWJsZXItb3V0bGluZSBpY29uLXRhYmxlci1zYWlsYm9hdCIgc3Ryb2tlLWxpbmVqb2luPSJyb3VuZCIgc3Ryb2tlLWxpbmVjYXA9InJvdW5kIiBzdHJva2Utd2lkdGg9IjEuNSIgc3Ryb2tlPSIjZmZmIiBmaWxsPSJub25lIiB2aWV3Qm94PSIwIDAgMjQgMjQiIGhlaWdodD0iMjAwIiB3aWR0aD0iMjAwIiB4bWxucz0iaHR0cDovL3d3dy53My5vcmcvMjAwMC9zdmciPiYjeGE7ICAgIDxjaXJjbGUgZmlsbD0iIzE5NzFjMiIgc3Ryb2tlPSIjMTk3MWMyIiByPSIxMSIgY3k9IjEyIiBjeD0iMTIiLz4mI3hhOyAgICA8cGF0aCBmaWxsPSJub25lIiBkPSJNMCAwaDI0djI0SDB6IiBzdHJva2U9Im5vbmUiLz4mI3hhOyAgICA8cGF0aCBkPSJNMiAyMGEyLjQgMi40IDAgMCAwIDIgMWEyLjQgMi40IDAgMCAwIDIgLTFhMi40IDIuNCAwIDAgMSAyIC0xYTIuNCAyLjQgMCAwIDEgMiAxYTIuNCAyLjQgMCAwIDAgMiAxYTIuNCAyLjQgMCAwIDAgMiAtMWEyLjQgMi40IDAgMCAxIDIgLTFhMi40IDIuNCAwIDAgMSAyIDFhMi40IDIuNCAwIDAgMCAyIDFhMi40IDIuNCAwIDAgMCAyIC0xIi8+JiN4YTsgICAgPHBhdGggZD0iTTQgMThsLTEgLTNoMThsLTEgMyIvPiYjeGE7ICAgIDxwYXRoIGQ9Ik0xMSAxMmg3bC03IC05djkiLz4mI3hhOyAgICA8cGF0aCBkPSJNOCA3bC0yIDUiLz4mI3hhOzwvc3ZnPg==;" vertex="1" parent="w5ZOCgXdWMlHR6tc9iUt-732">
          <mxGeometry y="3.33" width="24.07" height="24.07" as="geometry" />
        </mxCell>
        <mxCell id="w5ZOCgXdWMlHR6tc9iUt-735" value="" style="group;fillColor=default;" vertex="1" connectable="0" parent="1">
          <mxGeometry x="770" y="875" width="54" height="41" as="geometry" />
        </mxCell>
        <mxCell id="w5ZOCgXdWMlHR6tc9iUt-736" value="VUI" style="text;html=1;align=center;verticalAlign=middle;whiteSpace=wrap;rounded=0;fontFamily=Roboto;fontSource=https%3A%2F%2Ffonts.googleapis.com%2Fcss%3Ffamily%3DRoboto;horizontal=1;fontStyle=1;labelPosition=center;verticalLabelPosition=middle;fontColor=#7B838A;" vertex="1" parent="w5ZOCgXdWMlHR6tc9iUt-735">
          <mxGeometry x="28.07" width="25.93" height="30" as="geometry" />
        </mxCell>
        <mxCell id="w5ZOCgXdWMlHR6tc9iUt-737" value="" style="shape=image;verticalLabelPosition=bottom;labelBackgroundColor=default;verticalAlign=top;aspect=fixed;imageAspect=0;image=data:image/svg+xml,PHN2ZyBjbGFzcz0iaWNvbiBpY29uLXRhYmxlciBpY29ucy10YWJsZXItb3V0bGluZSBpY29uLXRhYmxlci1zYWlsYm9hdCIgc3Ryb2tlLWxpbmVqb2luPSJyb3VuZCIgc3Ryb2tlLWxpbmVjYXA9InJvdW5kIiBzdHJva2Utd2lkdGg9IjEuNSIgc3Ryb2tlPSIjZmZmIiBmaWxsPSJub25lIiB2aWV3Qm94PSIwIDAgMjQgMjQiIGhlaWdodD0iMjAwIiB3aWR0aD0iMjAwIiB4bWxucz0iaHR0cDovL3d3dy53My5vcmcvMjAwMC9zdmciPiYjeGE7ICAgIDxjaXJjbGUgZmlsbD0iIzE5NzFjMiIgc3Ryb2tlPSIjMTk3MWMyIiByPSIxMSIgY3k9IjEyIiBjeD0iMTIiLz4mI3hhOyAgICA8cGF0aCBmaWxsPSJub25lIiBkPSJNMCAwaDI0djI0SDB6IiBzdHJva2U9Im5vbmUiLz4mI3hhOyAgICA8cGF0aCBkPSJNMiAyMGEyLjQgMi40IDAgMCAwIDIgMWEyLjQgMi40IDAgMCAwIDIgLTFhMi40IDIuNCAwIDAgMSAyIC0xYTIuNCAyLjQgMCAwIDEgMiAxYTIuNCAyLjQgMCAwIDAgMiAxYTIuNCAyLjQgMCAwIDAgMiAtMWEyLjQgMi40IDAgMCAxIDIgLTFhMi40IDIuNCAwIDAgMSAyIDFhMi40IDIuNCAwIDAgMCAyIDFhMi40IDIuNCAwIDAgMCAyIC0xIi8+JiN4YTsgICAgPHBhdGggZD0iTTQgMThsLTEgLTNoMThsLTEgMyIvPiYjeGE7ICAgIDxwYXRoIGQ9Ik0xMSAxMmg3bC03IC05djkiLz4mI3hhOyAgICA8cGF0aCBkPSJNOCA3bC0yIDUiLz4mI3hhOzwvc3ZnPg==;" vertex="1" parent="w5ZOCgXdWMlHR6tc9iUt-735">
          <mxGeometry y="3.33" width="24.07" height="24.07" as="geometry" />
        </mxCell>
      </root>
    </mxGraphModel>
  </diagram>
</mxfile>
